<svg id="Layer_1" data-name="Layer 1" xmlns="http://www.w3.org/2000/svg" width="463.98" height="690.35" viewBox="0 0 463.98 690.35"><path d="M231.15,690.35c-6.76-10-13.3-19.74-19.91-29.44Q153,575.46,101.1,486C68.61,429.79,39.22,372.08,15.69,311.51c-11.27-29-16.83-59-15.49-90.16,2.09-48.55,18.1-92.19,48-130.43,36.22-46.27,83.15-75.55,141-86.67A231.51,231.51,0,0,1,352.11,32.82q61.67,37,91.66,102.47a222.78,222.78,0,0,1,19,67.22c2.37,20.33,1,40.56-2.07,60.75-5.24,34.83-17.71,67.3-32,99.17-22.4,49.86-48.64,97.69-76.34,144.75-28.64,48.66-58.77,96.38-91.16,142.64-9.12,13-18.83,25.63-28.28,38.43C232.42,688.91,231.85,689.51,231.15,690.35ZM383.42,296.46a9.45,9.45,0,0,0,1.27.21c15.16,0,30.33,0,45.49.05,1.45,0,1.84-.71,2.16-1.81,5.46-18.7,9.37-37.71,10.49-57.19a215.33,215.33,0,0,0-5.42-63.9A181.25,181.25,0,0,0,400,99.47a205.42,205.42,0,0,0-53.28-44.8C317.18,37.16,285.65,25.24,251.4,21a187,187,0,0,0-46.56,0A176.61,176.61,0,0,0,156.46,34c-45.95,19.95-82,51.65-108.93,93.62-23.22,36.24-32,76.08-26.46,118.86A210.44,210.44,0,0,0,33.19,294.1c.8,2.12,1.79,2.65,3.92,2.64q25.5-.14,51,0c2.18,0,3.34-.56,4.38-2.59Q117,246,141.8,198c.39-.75.82-1.48,1.38-2.5,8.19,19.12,16.22,37.84,24.24,56.57q9.14,21.33,18.3,42.65c.34.78,1.19,1.87,1.84,1.89,4.71.16,9.44.09,14.43.09V204.22H275.2v92.25h17.62v-38.3h90.6ZM262.28,309.52V217.18H214.86v92.33H178l-35.89-83.72c-.68,1.22-1.17,2.06-1.61,2.93q-20.25,39.41-40.45,78.84a3.25,3.25,0,0,1-3.42,2.08q-27.26-.09-54.5,0c-.86,0-1.73.07-2.82.12.27.72.42,1.18.61,1.62,6.79,15.87,13.26,31.88,20.43,47.57a1562.61,1562.61,0,0,0,87.85,165.15c24,39.24,48.62,78.08,73,117.1,3.5,5.61,7,11.23,10.61,17.05.39-.58.62-.9.83-1.25,18.09-30.53,36.1-61.12,54.29-91.6C323.11,504.7,359.33,444,393.3,382.07,404.56,361.53,415.88,341,424.09,319c1.14-3.05,2.26-6.1,3.51-9.51H370.5V271.1H305.45v38.42Z"/></svg>