<?xml version="1.0" standalone="no"?>
<!DOCTYPE svg PUBLIC "-//W3C//DTD SVG 20010904//EN"
 "http://www.w3.org/TR/2001/REC-SVG-20010904/DTD/svg10.dtd">
<svg version="1.0" xmlns="http://www.w3.org/2000/svg"
 width="300.000000pt" height="300.000000pt" viewBox="0 0 300.000000 300.000000"
 preserveAspectRatio="xMidYMid meet">
<metadata>
Created by potrace 1.14, written by Peter Selinger 2001-2017
</metadata>
<g transform="translate(0.000000,300.000000) scale(0.100000,-0.100000)"
fill="#000000" stroke="none">
<path d="M1295 2971 c-197 -46 -360 -135 -496 -271 -133 -132 -219 -277 -271
-455 -20 -70 -23 -102 -23 -245 1 -190 8 -223 87 -420 144 -357 381 -782 730
-1313 94 -141 172 -257 173 -257 8 0 175 235 270 380 219 335 388 630 535 932
156 321 207 513 197 736 -11 270 -146 535 -360 708 -95 77 -268 166 -382 195
-117 31 -350 36 -460 10z m397 -85 c380 -106 635 -351 705 -680 20 -95 13
-332 -13 -431 l-19 -70 -112 -3 -113 -3 0 81 0 80 -185 0 -185 0 0 -80 0 -80
-45 0 -45 0 -2 198 -3 197 -147 3 -148 3 0 -201 0 -200 -43 0 -44 0 -88 206
c-48 113 -91 202 -95 197 -4 -4 -54 -97 -110 -205 l-102 -198 -127 0 -128 0
-21 73 c-77 258 -49 471 90 684 58 90 205 240 293 300 106 71 229 123 343 143
71 13 278 5 344 -14z m-52 -1016 l0 -200 85 0 85 0 0 80 0 80 150 0 150 0 0
-80 0 -80 121 0 c120 0 120 0 114 -22 -32 -106 -173 -368 -445 -828 -86 -146
-210 -356 -276 -467 -65 -111 -121 -202 -124 -203 -8 0 -370 581 -470 755
-102 180 -256 485 -324 648 -25 59 -46 110 -46 112 0 3 58 5 129 5 l129 0 92
178 c50 97 94 180 98 184 4 4 43 -75 86 -177 l79 -185 69 0 68 0 0 200 0 200
115 0 115 0 0 -200z"/>
</g>
</svg>
